Coordinates
version=1
nRows=11
nColumns=63
inDegrees=yes

Units are S.I. units (second, meters, Newtons, ...)
If the header above contains a line with 'inDegrees', this indicates whether rotational values are in degrees (yes) or radians (no).

endheader
time	pelvis_tilt	pelvis_list	pelvis_rotation	pelvis_tx	pelvis_ty	pelvis_tz	hip_flexion_r	hip_adduction_r	hip_rotation_r	knee_angle_r	knee_angle_r_beta	ankle_angle_r	subtalar_angle_r	mtp_angle_r	hip_flexion_l	hip_adduction_l	hip_rotation_l	knee_angle_l	knee_angle_l_beta	ankle_angle_l	subtalar_angle_l	mtp_angle_l	L5_S1_Flex_Ext	L5_S1_Lat_Bending	L5_S1_axial_rotation	L4_L5_Flex_Ext	L4_L5_Lat_Bending	L4_L5_axial_rotation	L3_L4_Flex_Ext	L3_L4_Lat_Bending	L3_L4_axial_rotation	L2_L3_Flex_Ext	L2_L3_Lat_Bending	L2_L3_axial_rotation	L1_L2_Flex_Ext	L1_L2_Lat_Bending	L1_L2_axial_rotation	L1_T12_Flex_Ext	L1_T12_Lat_Bending	L1_T12_axial_rotation	Abs_r3	Abs_r2	Abs_r1	Abs_t1	Abs_t2	neck_flexion	neck_bending	neck_rotation	arm_flex_r	arm_add_r	arm_rot_r	elbow_flex_r	pro_sup_r	wrist_flex_r	wrist_dev_r	arm_flex_l	arm_add_l	arm_rot_l	elbow_flex_l	pro_sup_l	wrist_flex_l	wrist_dev_l
      0.00000000	      5.39146266	     -3.86323038	     85.46361112	      0.13665651	      0.96305488	      0.36422493	     -1.46106826	      1.27136488	    -14.46516268	      7.76507208	      0.13552607	     32.30248272	     17.67079379	      0.00000000	      0.21840194	     -1.30837760	     -6.90132805	     11.72058754	      0.20456284	     33.79066669	     -1.02804080	      0.00000000	      0.21788537	      0.17757229	     -0.23253022	      0.40463492	      0.23617114	     -0.24706336	      0.35796388	      0.43174926	     -0.24706336	      0.24902119	      0.43174926	     -0.20346394	      0.20232836	      0.36210541	     -0.18893080	      0.12449970	      0.27505947	     -0.17439766	      1.55633342	      2.00873321	     -1.29326331	      0.00000000	      0.00000000	     14.54387140	      9.91371661	     25.99600447	      3.96831723	    -16.44023361	     46.65713011	     78.64742562	     88.19678700	     16.51106628	     10.53082337	     12.59478719	    -25.61539921	     62.56698803	     80.94065354	     88.13243818	     -7.56324430	    -16.18382701
      0.01666667	      5.47539740	     -3.91603120	     83.63495741	      0.13896740	      0.96248703	      0.36613361	     -1.22455707	      1.37087223	    -12.50675751	      7.61081435	      0.13283377	     32.16950388	     17.61103348	      0.00000000	     -0.01764089	     -1.35501985	     -8.46843435	     11.78862272	      0.20575028	     33.40933127	     -2.20009636	      0.00000000	      0.21002421	      0.20044887	      0.03714892	      0.39003596	      0.26659700	      0.03947073	      0.34504878	      0.48737139	      0.03947073	      0.24003667	      0.48737139	      0.03250531	      0.19502848	      0.40875534	      0.03018350	      0.12000783	      0.31049530	      0.02786169	      1.50018194	      2.26751774	      0.20661115	      0.00000000	      0.00000000	     13.98764314	      9.60255711	     26.29255633	      5.00415743	    -16.91091498	     48.25259334	     78.54801187	     88.53898936	     17.02910850	      9.10627690	     13.70712041	    -26.18727750	     64.56427087	     81.07049905	     88.26948404	     -7.26560819	    -16.92412305
      0.03333333	      5.53046236	     -3.98074060	     82.52748613	      0.14042708	      0.96206558	      0.36753025	     -1.14970672	      1.47011464	    -11.40482623	      7.29486370	      0.12731939	     32.00288454	     17.73054746	      0.00000000	     -0.06924694	     -1.41345661	     -9.47761113	     11.97621003	      0.20902430	     33.12669829	     -2.83423371	      0.00000000	      0.20235606	      0.21311873	      0.21843646	      0.37579543	      0.28344790	      0.23208874	      0.33245077	      0.51817687	      0.23208874	      0.23127274	      0.51817687	      0.19113190	      0.18790783	      0.43459170	      0.17747962	      0.11562625	      0.33012091	      0.16382734	      1.44540908	      2.41084164	      1.21487806	      0.00000000	      0.00000000	     13.80329062	      9.51948203	     26.48050960	      5.57307128	    -17.21280963	     49.17023727	     78.63066636	     88.64517797	     17.40208767	      8.77990424	     14.59989076	    -26.53945214	     66.06002888	     81.14585582	     88.37248253	     -6.84195060	    -17.08511107
      0.05000000	      5.52267402	     -4.15707504	     81.53963293	      0.14182401	      0.96167871	      0.36827444	     -1.01981971	      1.53336432	    -10.33749490	      6.94930654	      0.12128828	     31.84168306	     17.69613117	      0.00000000	     -0.08895280	     -1.40821030	    -10.34933153	     11.92002601	      0.20804370	     32.89340258	     -3.20669951	      0.00000000	      0.21440938	      0.21642064	      0.42392940	      0.39817965	      0.28783945	      0.45042499	      0.35225317	      0.52620514	      0.45042499	      0.24504848	      0.52620514	      0.37093823	      0.19910055	      0.44132497	      0.34444264	      0.12251352	      0.33523557	      0.31794705	      1.53150474	      2.44819354	      2.35776817	      0.00000000	      0.00000000	     14.11676328	      9.57220606	     26.49052033	      5.48676245	    -17.35127879	     49.30235263	     78.73950509	     88.68148697	     17.51444891	      8.75923749	     15.29466963	    -26.68160191	     67.24319893	     81.10472374	     88.41550532	     -6.53369206	    -17.09673499
      0.06666667	      5.52660559	     -4.23412883	     80.69440798	      0.14292024	      0.96150586	      0.36843511	     -0.98773570	      1.58273053	     -9.02152558	      6.74188413	      0.11766808	     31.80190072	     17.15339909	      0.00000000	     -0.27870349	     -1.40032085	    -11.37250995	     11.70682448	      0.20432263	     32.72404955	     -3.05546978	      0.00000000	      0.21876949	      0.21492697	      0.70800072	      0.40627682	      0.28585287	      0.75225077	      0.35941639	      0.52257343	      0.75225077	      0.25003165	      0.52257343	      0.61950063	      0.20314935	      0.43827907	      0.57525059	      0.12500489	      0.33292187	      0.53100054	      1.56264858	      2.43129684	      3.93768763	      0.00000000	      0.00000000	     14.59648507	      9.50944431	     25.45698093	      4.37729681	    -17.34359938	     47.78590011	     79.20045197	     88.64185404	     17.90596826	      9.80017635	     16.36265948	    -26.51377833	     68.88274915	     80.86074532	     88.36444884	     -6.58863320	    -16.98416095
      0.08333333	      5.52802427	     -4.34949124	     80.47866023	      0.14333760	      0.96131880	      0.36826426	     -1.04548775	      1.64801683	     -8.60787554	      6.40015459	      0.11170377	     31.74237771	     16.97171748	      0.00000000	     -0.25250093	     -1.48444011	    -12.21778950	     11.70000202	      0.20420356	     32.86322138	     -2.05454307	      0.00000000	      0.22823517	      0.21174747	      0.83890905	      0.42385553	      0.28162414	      0.89134087	      0.37496756	      0.51484281	      0.89134087	      0.26084998	      0.51484281	      0.73404542	      0.21193918	      0.43179545	      0.68161360	      0.13041358	      0.32799684	      0.62918179	      1.63026100	      2.39532976	      4.66576047	      0.00000000	      0.00000000	     15.17311102	      9.66507605	     25.03377746	      3.54396439	    -17.24943678	     46.69966232	     79.48727689	     88.53131466	     18.16890343	     10.88610853	     16.76387524	    -26.33319851	     69.43728527	     80.67434685	     88.34707410	     -6.12296945	    -16.63252586
      0.10000000	      5.55090584	     -4.45813881	     80.28089590	      0.14360400	      0.96118034	      0.36777809	     -1.13687474	      1.72534403	     -8.04253822	      6.05541355	      0.10568690	     31.67191075	     16.61509075	      0.00000000	     -0.27706123	     -1.53788218	    -12.79660979	     11.60155343	      0.20248531	     33.05536038	     -1.39296997	      0.00000000	      0.24016106	      0.21278564	      0.95102747	      0.44600310	      0.28300490	      1.01046669	      0.39456060	      0.51736700	      1.01046669	      0.27448007	      0.51736700	      0.83214904	      0.22301356	      0.43391247	      0.77270982	      0.13722803	      0.32960495	      0.71327061	      1.71544643	      2.40707370	      5.28932951	      0.00000000	      0.00000000	     15.66659198	      9.80132003	     24.73867289	      2.79740953	    -17.18432375	     45.87545145	     79.67539599	     88.36122585	     17.94164123	     11.49200538	     16.93246103	    -26.11780501	     69.76700070	     80.57879699	     88.32965586	     -5.99122167	    -16.00455814
      0.11666667	      5.60162477	     -4.49053756	     80.30265625	      0.14366821	      0.96106775	      0.36722965	     -1.32284493	      1.82438635	     -7.64970750	      5.72844220	      0.09998018	     31.71354843	     16.24365328	      0.00000000	     -0.29182090	     -1.75003207	    -14.28534376	     11.73070902	      0.20473950	     33.70800098	      0.84566013	      0.00000000	      0.24202311	      0.21328148	      1.04094027	      0.44946112	      0.28366437	      1.10599904	      0.39761977	      0.51857260	      1.10599904	      0.27660821	      0.51857260	      0.91082274	      0.22474266	      0.43492360	      0.84576397	      0.13829200	      0.33037302	      0.78070521	      1.72874686	      2.41268281	      5.78939752	      0.00000000	      0.00000000	     16.15954041	      9.88025664	     24.21974972	      2.02794775	    -16.96884074	     44.63359409	     79.81581339	     88.14311888	     18.81781584	     12.86697932	     17.30393801	    -25.83859664	     70.30761166	     80.34980742	     88.24017883	     -5.78937658	    -15.82986669
      0.13333333	      5.62526679	     -4.41420603	     80.55797964	      0.14322789	      0.96103371	      0.36661659	     -1.54551288	      1.84578712	     -7.70173077	      5.58661195	      0.09750477	     31.80450972	     16.05914304	      0.00000000	     -0.42819309	     -1.71004055	    -13.88394683	     11.67048576	      0.20368840	     33.86988095	      0.68981121	      0.00000000	      0.22936504	      0.20865420	      1.05236872	      0.42595381	      0.27751009	      1.11814176	      0.37682382	      0.50732183	      1.11814176	      0.26214130	      0.50732183	      0.92082263	      0.21298837	      0.42548765	      0.85504958	      0.13105918	      0.32320536	      0.78927654	      1.63833153	      2.36033807	      5.85295910	      0.00000000	      0.00000000	     16.57181675	     10.04844161	     23.67867864	      1.82480172	    -17.05609613	     44.44694237	     79.92221284	     87.99756072	     18.13112174	     13.09212341	     17.53769896	    -25.66740528	     70.49313713	     80.45177618	     88.20588322	     -5.70983082	    -14.70272327
      0.15000000	      5.80008696	     -4.49534186	     81.42592443	      0.14205492	      0.96065863	      0.36540680	     -1.88492019	      2.09384331	     -8.32989377	      5.05287308	      0.08818927	     31.64142660	     15.97636104	      0.00000000	     -0.28266871	     -2.00202396	    -13.89413705	     11.87775187	      0.20730588	     34.46382809	      1.96131693	      0.00000000	      0.25653657	      0.22992634	      0.95325319	      0.47641406	      0.30580203	      1.01283151	      0.42146393	      0.55904290	      1.01283151	      0.29319565	      0.55904290	      0.83409654	      0.23821986	      0.46886579	      0.77451822	      0.14658500	      0.35615590	      0.71493989	      1.83241506	      2.60097274	      5.30170826	      0.00000000	      0.00000000	     16.52006719	      9.84489990	     23.53777440	      1.23733970	    -16.93525218	     43.15963917	     80.07070426	     87.94378225	     19.25098081	     13.91052369	     17.59709457	    -25.31680102	     70.40565397	     80.16997148	     88.04042669	     -5.11296962	    -14.90903346
      0.16666667	      5.78709363	     -4.50912623	     81.52258689	      0.14183003	      0.96040397	      0.36493857	     -1.93401953	      2.06527765	     -8.36539024	      5.03277935	      0.08783857	     31.64533214	     15.95791436	      0.00000000	     -0.30850197	     -1.96829186	    -13.92217574	     11.85444304	      0.20689906	     34.56877189	      1.94351842	      0.00000000	      0.26693025	      0.23015450	      0.94124653	      0.49571616	      0.30610548	      1.00007443	      0.43853970	      0.55959765	      1.00007443	      0.30507458	      0.55959765	      0.82359071	      0.24787143	      0.46933105	      0.76476280	      0.15252394	      0.35650932	      0.70593489	      1.90665606	      2.60355371	      5.23493080	      0.00000000	      0.00000000	     16.46986912	      9.84408529	     23.52306660	      1.45507809	    -17.02386816	     42.88836531	     80.10188714	     87.92387619	     19.19205532	     13.87034883	     17.76888712	    -25.20550379	     70.22276027	     80.19057245	     87.99879597	     -5.11862735	    -14.89915652
